HIERARCHY
ROOT Hips
{
	OFFSET 54.697201 -6.264624 84.481300
	CHANNELS 6 Xposition Yposition Zposition Xrotation Yrotation Zrotation
	JOINT spine
	{
		OFFSET 0.000000 -0.342408 5.954384
		CHANNELS 3 Xrotation Yrotation Zrotation
		JOINT spine1
		{
			OFFSET 0.000000 -0.000001 8.856018
			CHANNELS 3 Xrotation Yrotation Zrotation
			JOINT spine2
			{
				OFFSET 0.000000 -0.000001 8.485672
				CHANNELS 3 Xrotation Yrotation Zrotation
				JOINT Neck
				{
					OFFSET 0.000000 -1.038703 21.786301
					CHANNELS 3 Xrotation Yrotation Zrotation
					JOINT Head
					{
						OFFSET 0.000000 -0.000001 6.582199
						CHANNELS 3 Xrotation Yrotation Zrotation
						End Site
						{
							OFFSET 0.000000 5.254358 15.932602
						}
					}
				}
				JOINT RightShoulder
				{
					OFFSET -3.573071 0.497524 9.163864
					CHANNELS 3 Xrotation Yrotation Zrotation
					JOINT RightArm
					{
						OFFSET 0.000000 -0.000002 12.019196
						CHANNELS 3 Xrotation Yrotation Zrotation
						JOINT RightArmRoll
						{
							OFFSET 0.000000 -0.000001 6.067535
							CHANNELS 3 Xrotation Yrotation Zrotation
							JOINT RightForeArm
							{
								OFFSET 0.000000 -0.000003 17.672592
								CHANNELS 3 Xrotation Yrotation Zrotation
								JOINT RightForeArmRoll
								{
									OFFSET 0.000000 -0.000001 6.808716
									CHANNELS 3 Xrotation Yrotation Zrotation
									JOINT RightHand
									{
										OFFSET 0.000000 -0.000002 13.663605
										CHANNELS 3 Xrotation Yrotation Zrotation
										End Site
										{
											OFFSET 0.000000 0.000000 0.100006
										}
									}
								}
							}
						}
					}
				}
				JOINT LeftShoulder
				{
					OFFSET 3.573071 0.497524 9.163864
					CHANNELS 3 Xrotation Yrotation Zrotation
					JOINT LeftArm
					{
						OFFSET 0.000000 -0.000002 12.019196
						CHANNELS 3 Xrotation Yrotation Zrotation
						JOINT LeftArmRoll
						{
							OFFSET 0.000000 -0.000001 6.067551
							CHANNELS 3 Xrotation Yrotation Zrotation
							JOINT LeftForeArm
							{
								OFFSET 0.000000 -0.000003 17.672607
								CHANNELS 3 Xrotation Yrotation Zrotation
								JOINT LeftForeArmRoll
								{
									OFFSET 0.000000 -0.000001 6.808716
									CHANNELS 3 Xrotation Yrotation Zrotation
									JOINT LeftHand
									{
										OFFSET 0.000000 -0.000002 13.663605
										CHANNELS 3 Xrotation Yrotation Zrotation
										End Site
										{
											OFFSET 0.000000 0.000000 0.100006
										}
									}
								}
							}
						}
					}
				}
			}
		}
	}
	JOINT RightUpLeg
	{
		OFFSET -5.277740 0.811858 -0.967796
		CHANNELS 3 Xrotation Yrotation Zrotation
		JOINT RightUpLegRoll
		{
			OFFSET 0.000000 -0.000002 16.021400
			CHANNELS 3 Xrotation Yrotation Zrotation
			JOINT RightLeg
			{
				OFFSET 0.000000 0.000003 -19.840096
				CHANNELS 3 Xrotation Yrotation Zrotation
				JOINT RightLegRoll
				{
					OFFSET 0.000000 -0.000003 19.904999
					CHANNELS 3 Xrotation Yrotation Zrotation
					JOINT RightFoot
					{
						OFFSET 0.000000 -0.000003 16.567497
						CHANNELS 3 Xrotation Yrotation Zrotation
						JOINT RightToeBase
						{
							OFFSET 0.000000 -0.000002 13.849602
							CHANNELS 3 Xrotation Yrotation Zrotation
							End Site
							{
								OFFSET 0.005871 0.773116 6.707275
							}
						}
					}
				}
			}
		}
	}
	JOINT LeftUpLeg
	{
		OFFSET 5.277740 0.811858 -0.967796
		CHANNELS 3 Xrotation Yrotation Zrotation
		JOINT LeftUpLegRoll
		{
			OFFSET 0.000000 -0.000002 16.021500
			CHANNELS 3 Xrotation Yrotation Zrotation
			JOINT LeftLeg
			{
				OFFSET 0.000000 -0.000003 19.839996
				CHANNELS 3 Xrotation Yrotation Zrotation
				JOINT LeftLegRoll
				{
					OFFSET 0.000000 -0.000003 20.089005
					CHANNELS 3 Xrotation Yrotation Zrotation
					JOINT LeftFoot
					{
						OFFSET 0.000000 -0.000002 16.383499
						CHANNELS 3 Xrotation Yrotation Zrotation
						JOINT LeftToeBase
						{
							OFFSET 0.000000 -0.000002 13.849594
							CHANNELS 3 Xrotation Yrotation Zrotation
							End Site
							{
								OFFSET -0.026310 0.773115 6.707275
							}
						}
					}
				}
			}
		}
	}
}
MOTION
Frames: 8
Frame Time: 0.041667
54.144699 -3.501242 84.359810 -8.847763 -1.234834 0.858349 -0.849151 -0.249144 0.080798 2.304920 -0.498978 0.171738 3.950011 -0.496870 0.176650 13.986840 9.097140 -2.387515 2.499970 -11.515922 -2.186344 4.636915 -67.660940 4.217155 -39.808060 -115.849284 -47.549024 -0.000002 0.000000 0.000001 -0.027612 3.648320 -1.990731 -0.000000 0.000000 -3.011610 -5.000183 -7.999928 0.000014 -3.516252 70.470408 5.186073 -38.183749 118.095460 46.854620 0.000001 -0.000004 -0.000001 -0.028946 -3.637551 1.990793 -0.000006 -0.000003 3.011599 -5.000164 7.999930 -0.000007 1.436919 -177.327844 4.680585 179.999991 -0.000005 -1.167001 168.013774 -2.940580 -0.686999 0.000001 -0.000004 0.186149 70.824096 6.865611 2.077896 25.456953 -7.355618 0.000011 2.134595 179.841107 0.256891 -0.000005 -0.000004 -1.178520 -10.409461 1.879276 0.471837 -0.000002 0.000003 -0.159663 70.095732 -6.855723 -2.122138 25.456957 7.355614 -0.000001 
54.109299 -3.533214 84.368889 -8.873667 -1.235419 0.847116 -0.842557 -0.247337 0.080800 2.318107 -0.495691 0.171747 3.963197 -0.493581 0.176658 13.967610 9.074824 -2.378602 2.512651 -11.485939 -2.178357 4.687673 -67.703478 4.267783 -39.887280 -115.841593 -47.608539 -0.000000 -0.000000 -0.000000 -0.027611 3.648321 -1.990732 -0.000000 0.000001 -3.011610 -5.000181 -7.999928 0.000018 -3.541063 70.463517 5.213362 -38.212955 118.080556 46.868396 -0.000000 -0.000004 0.000000 -0.028948 -3.637551 1.990793 -0.000006 -0.000003 3.011600 -5.000165 7.999931 -0.000008 1.464057 -177.328868 4.683715 179.999991 -0.000005 -1.167998 168.014416 -2.937647 -0.687341 0.000001 -0.000004 0.186205 70.821863 6.865637 2.077939 25.456955 -7.355617 0.000010 2.170903 179.843116 0.257343 -0.000004 -0.000005 -1.178380 -10.398235 1.875842 0.471384 -0.000002 0.000003 -0.159466 70.094140 -6.855718 -2.122238 25.456950 7.355613 -0.000001 
54.118900 -3.524362 84.364510 -8.900277 -1.235853 0.835130 -0.835827 -0.245494 0.080802 2.331557 -0.492354 0.171753 3.976645 -0.490244 0.176666 13.948466 9.052083 -2.369364 2.525602 -11.455254 -2.170029 4.740902 -67.746952 4.321036 -39.968279 -115.832140 -47.669236 -0.000002 0.000000 -0.000001 -0.027612 3.648320 -1.990733 -0.000002 0.000001 -3.011607 -5.000183 -7.999930 0.000016 -3.566856 70.456208 5.241730 -38.240187 118.066158 46.880154 -0.000000 -0.000004 0.000001 -0.028949 -3.637550 1.990792 -0.000005 -0.000004 3.011600 -5.000164 7.999930 -0.000008 1.491106 -177.328909 4.686805 179.999991 -0.000005 -1.167998 168.013446 -2.935686 -0.687987 0.000001 -0.000004 0.186291 70.820483 6.865631 2.077923 25.456953 -7.355616 0.000011 2.209725 179.845110 0.257169 -0.000005 -0.000004 -1.178180 -10.383910 1.873104 0.470850 -0.000003 0.000003 -0.159166 70.091271 -6.855711 -2.122312 25.456952 7.355613 -0.000000 
54.057800 -3.628605 84.375298 -8.927384 -1.236176 0.822631 -0.829006 -0.243624 0.080804 2.345195 -0.488981 0.171759 3.990293 -0.486871 0.176671 13.929416 9.029029 -2.359904 2.538730 -11.424171 -2.161466 4.795932 -67.790966 4.376203 -40.048794 -115.822537 -47.728894 0.000001 0.000000 -0.000000 -0.027611 3.648320 -1.990732 -0.000003 0.000001 -3.011610 -5.000180 -7.999929 0.000016 -3.593354 70.448579 5.270863 -38.266726 118.051542 46.891096 0.000001 -0.000004 -0.000001 -0.028947 -3.637550 1.990793 -0.000006 -0.000003 3.011598 -5.000165 7.999931 -0.000006 1.518095 -177.329934 4.689825 179.999991 -0.000005 -1.168995 168.011261 -2.932722 -0.688473 0.000001 -0.000004 0.186397 70.819520 6.865628 2.077982 25.456957 -7.355615 0.000011 2.250303 179.846121 0.256515 -0.000005 -0.000004 -1.177960 -10.367487 1.870862 0.470262 -0.000003 0.000003 -0.158796 70.087460 -6.855713 -2.122448 25.456953 7.355613 0.000000 
54.071400 -3.604106 84.375008 -8.954782 -1.236419 0.809837 -0.822131 -0.241741 0.080805 2.358945 -0.485588 0.171762 4.004033 -0.483478 0.176674 13.910364 9.005807 -2.350319 2.551964 -11.392784 -2.152773 4.852100 -67.835328 4.432580 -40.128984 -115.812879 -47.787900 -0.000002 -0.000000 0.000001 -0.027613 3.648320 -1.990732 -0.000003 -0.000000 -3.011612 -5.000184 -7.999928 0.000015 -3.620261 70.440820 5.300445 -38.294292 118.036078 46.903240 0.000000 -0.000004 -0.000000 -0.028948 -3.637550 1.990793 -0.000008 -0.000004 3.011600 -5.000162 7.999930 -0.000006 1.545043 -177.329975 4.692841 179.999991 -0.000005 -1.168995 168.008378 -2.930740 -0.689204 0.000001 -0.000004 0.186513 70.818892 6.865660 2.077926 25.456952 -7.355615 0.000011 2.291893 179.848129 0.255653 -0.000004 -0.000004 -1.177720 -10.349866 1.868901 0.469645 -0.000002 0.000003 -0.158384 70.083014 -6.855733 -2.122526 25.456957 7.355613 -0.000000 
54.123402 -3.523775 84.369606 -8.982248 -1.236641 0.796964 -0.815243 -0.239854 0.080805 2.372715 -0.482190 0.171764 4.017811 -0.480079 0.176676 13.891416 8.982537 -2.340729 2.565223 -11.361299 -2.144062 4.908716 -67.879752 4.489434 -40.210372 -115.802442 -47.848180 0.000000 -0.000000 0.000000 -0.027612 3.648320 -1.990734 -0.000001 0.000000 -3.011609 -5.000182 -7.999929 0.000015 -3.647236 70.433068 5.330103 -38.320537 118.021366 46.913936 -0.000000 -0.000004 -0.000001 -0.028946 -3.637550 1.990792 -0.000005 -0.000003 3.011600 -5.000165 7.999931 -0.000008 1.571979 -177.330999 4.695818 179.999991 -0.000005 -1.170006 168.005414 -2.927767 -0.689729 0.000002 -0.000004 0.186632 70.818345 6.865625 2.077952 25.456957 -7.355615 0.000011 2.333732 179.849126 0.254688 -0.000005 -0.000004 -1.177480 -10.331943 1.867010 0.469022 -0.000002 0.000003 -0.157963 70.078540 -6.855685 -2.122794 25.456957 7.355613 -0.000001 
54.098400 -3.561946 84.373413 -9.009575 -1.236884 0.784240 -0.808381 -0.237974 0.080805 2.386435 -0.478802 0.171764 4.031529 -0.476691 0.176677 13.872378 8.959346 -2.331210 2.578419 -11.329914 -2.135442 4.965058 -67.923977 4.546002 -40.290880 -115.792935 -47.907609 -0.000001 -0.000000 -0.000001 -0.027611 3.648321 -1.990733 -0.000001 0.000001 -3.011609 -5.000185 -7.999929 0.000014 -3.673957 70.425322 5.359496 -38.347011 118.006695 46.924933 0.000000 -0.000004 -0.000000 -0.028949 -3.637550 1.990793 -0.000005 -0.000003 3.011600 -5.000163 7.999930 -0.000005 1.598930 -177.331040 4.698843 179.999991 -0.000005 -1.170007 168.002737 -2.925787 -0.690450 0.000000 -0.000004 0.186744 70.817710 6.865622 2.077895 25.456957 -7.355619 0.000011 2.375071 179.851121 0.253893 -0.000004 -0.000004 -1.177250 -10.314624 1.864978 0.468415 -0.000002 0.000003 -0.157562 70.074305 -6.855711 -2.122860 25.456955 7.355614 -0.000001 
54.104301 -3.549415 84.375702 -9.036544 -1.237176 0.771888 -0.801581 -0.236113 0.080805 2.400024 -0.475441 0.171763 4.045119 -0.473329 0.176675 13.853353 8.936363 -2.321887 2.591490 -11.298928 -2.127005 5.020504 -67.967725 4.601611 -40.371783 -115.783605 -47.967800 0.000001 -0.000001 -0.000001 -0.027610 3.648320 -1.990734 -0.000000 0.000001 -3.011611 -5.000180 -7.999927 0.000016 -3.700203 70.417871 5.388353 -38.374014 117.992215 46.936312 0.000000 -0.000004 -0.000000 -0.028946 -3.637550 1.990793 -0.000007 -0.000003 3.011601 -5.000165 7.999930 -0.000006 1.625940 -177.332065 4.701872 179.999991 -0.000005 -1.171004 168.000852 -2.922826 -0.690930 0.000001 -0.000004 0.186844 70.816651 6.865619 2.077957 25.456953 -7.355616 0.000011 2.415156 179.853129 0.253417 -0.000005 -0.000004 -1.177030 -10.298800 1.862592 0.467848 -0.000002 0.000003 -0.157211 70.070699 -6.855717 -2.123083 25.456955 7.355613 -0.000000 
